<svg xmlns="http://www.w3.org/2000/svg" width="1200" height="340" viewBox="0 0 1200 340">
  <defs>
    <filter id="shadow-d" x="-4%" y="-4%" width="108%" height="112%">
      <feDropShadow dx="0" dy="4" stdDeviation="16" flood-color="#000" flood-opacity="0.3"/>
    </filter>
    <clipPath id="card-clip-d">
      <rect x="700" y="40" width="440" height="260" rx="16"/>
    </clipPath>
  </defs>

  <!-- Background — ink -->
  <rect width="1200" height="340" fill="#0a0a0b"/>

  <!-- LEFT SIDE: Hero text -->

  <!-- Accent line -->
  <rect x="72" y="60" width="48" height="3" rx="1.5" fill="#6172f3"/>

  <!-- Headline -->
  <text x="72" y="110" font-family="Inter, -apple-system, system-ui, sans-serif" font-size="44" font-weight="700" fill="#fafaf9" letter-spacing="-1.5">DESCRIBE</text>
  <text x="72" y="158" font-family="Inter, -apple-system, system-ui, sans-serif" font-size="44" font-weight="700" fill="#fafaf9" letter-spacing="-1.5">YOUR IDEA.</text>
  <text x="72" y="210" font-family="Inter, -apple-system, system-ui, sans-serif" font-size="38" font-weight="700" fill="#6172f3" letter-spacing="-1.5">YOUR AI TEAM</text>
  <text x="72" y="252" font-family="Inter, -apple-system, system-ui, sans-serif" font-size="38" font-weight="700" fill="#6172f3" letter-spacing="-1.5">GETS TO WORK.</text>

  <!-- CTA button -->
  <rect x="72" y="274" width="160" height="38" rx="8" fill="#6172f3"/>
  <text x="152" y="298" font-family="Inter, -apple-system, system-ui, sans-serif" font-size="13" font-weight="600" fill="#ffffff" text-anchor="middle">Describe Your Idea</text>

  <!-- RIGHT SIDE: Chat preview window -->
  <g filter="url(#shadow-d)">
    <rect x="700" y="40" width="440" height="260" rx="16" fill="#161618" stroke="#292524" stroke-width="1"/>
  </g>

  <g clip-path="url(#card-clip-d)">
    <!-- Window header dots -->
    <circle cx="724" cy="60" r="4" fill="#292524"/>
    <circle cx="738" cy="60" r="4" fill="#292524"/>
    <circle cx="752" cy="60" r="4" fill="#292524"/>

    <!-- Window divider -->
    <rect x="700" y="74" width="440" height="1" fill="#292524"/>

    <!-- User message bubble — right aligned, accent blue -->
    <rect x="840" y="90" width="280" height="40" rx="14" fill="#6172f3"/>
    <text x="860" y="115" font-family="Inter, -apple-system, system-ui, sans-serif" font-size="12" fill="#ffffff">A meal planning app for busy parents</text>

    <!-- Agent status row -->
    <circle cx="724" cy="155" r="14" fill="#6172f3" opacity="0.15"/>
    <text x="724" y="160" font-family="Inter, -apple-system, system-ui, sans-serif" font-size="12" font-weight="700" fill="#6172f3" text-anchor="middle">M</text>
    <text x="748" y="152" font-family="Inter, -apple-system, system-ui, sans-serif" font-size="12" font-weight="600" fill="#fafaf9">Market Researcher</text>
    <text x="748" y="168" font-family="Inter, -apple-system, system-ui, sans-serif" font-size="11" fill="#a8a29e">Analyzing competitors</text>
    <!-- Animated dots -->
    <circle cx="846" cy="165" r="2" fill="#a8a29e" opacity="0.6"/>
    <circle cx="854" cy="165" r="2" fill="#a8a29e" opacity="0.4"/>
    <circle cx="862" cy="165" r="2" fill="#a8a29e" opacity="0.2"/>

    <!-- Result card -->
    <rect x="716" y="185" width="408" height="100" rx="10" fill="#1c1c1f" stroke="#292524" stroke-width="1"/>

    <!-- Card header -->
    <rect x="716" y="185" width="408" height="32" rx="10" fill="rgba(97, 114, 243, 0.06)"/>
    <rect x="716" y="207" width="408" height="10" fill="rgba(97, 114, 243, 0.06)"/>
    <!-- Bar chart icon -->
    <rect x="732" y="194" width="4" height="12" rx="1" fill="#6172f3"/>
    <rect x="738" y="198" width="4" height="8" rx="1" fill="#6172f3"/>
    <rect x="744" y="191" width="4" height="15" rx="1" fill="#6172f3"/>
    <text x="756" y="205" font-family="Inter, -apple-system, system-ui, sans-serif" font-size="12" font-weight="600" fill="#fafaf9">Competitor Analysis</text>

    <!-- Data rows -->
    <text x="732" y="234" font-family="Inter, -apple-system, system-ui, sans-serif" font-size="11" fill="#a8a29e">Mealime</text>
    <text x="1040" y="234" font-family="Inter, -apple-system, system-ui, sans-serif" font-size="11" font-weight="600" fill="#fafaf9" text-anchor="end">4.8 ★ · 2.1M users</text>

    <rect x="732" y="242" width="376" height="1" fill="#292524"/>

    <text x="732" y="258" font-family="Inter, -apple-system, system-ui, sans-serif" font-size="11" fill="#a8a29e">Paprika</text>
    <text x="1040" y="258" font-family="Inter, -apple-system, system-ui, sans-serif" font-size="11" font-weight="600" fill="#fafaf9" text-anchor="end">4.6 ★ · 890K users</text>

    <rect x="732" y="266" width="376" height="1" fill="#292524"/>

    <text x="732" y="278" font-family="Inter, -apple-system, system-ui, sans-serif" font-size="11" fill="#a8a29e">Yummly</text>
    <text x="1040" y="278" font-family="Inter, -apple-system, system-ui, sans-serif" font-size="11" font-weight="600" fill="#fafaf9" text-anchor="end">4.5 ★ · 1.5M users</text>
  </g>
</svg>
